HIERARCHY
ROOT Hips
{
	OFFSET	0.00	0.00	0.00
	CHANNELS 6 Xposition Yposition Zposition Zrotation Xrotation Yrotation
	JOINT LeftUpLeg
	{
		OFFSET	 0.126116	-0.014019	-0.065224
		CHANNELS 3 Zrotation Xrotation Yrotation
		JOINT LeftLeg
		{
			OFFSET	 0.000000	 0.000000	 0.569914
			CHANNELS 3 Zrotation Xrotation Yrotation
			JOINT LeftFoot
			{
				OFFSET	 0.000000	 0.000000	 0.544423
				CHANNELS 3 Zrotation Xrotation Yrotation
				JOINT LeftToeBase
				{
					OFFSET	 0.000000	 0.000000	 0.207117
					CHANNELS 3 Zrotation Xrotation Yrotation
					End Site
					{
						OFFSET	 0.000000	 0.000000	 0.207117
					}
				}
			}
		}
	}
	JOINT RightUpLeg
	{
		OFFSET	-0.124023	-0.008373	-0.065224
		CHANNELS 3 Zrotation Xrotation Yrotation
		JOINT RightLeg
		{
			OFFSET	 0.000000	 0.000000	 0.570047
			CHANNELS 3 Zrotation Xrotation Yrotation
			JOINT RightFoot
			{
				OFFSET	 0.000000	 0.000000	 0.544354
				CHANNELS 3 Zrotation Xrotation Yrotation
				JOINT RightToeBase
				{
					OFFSET	 0.000000	 0.000000	 0.207540
					CHANNELS 3 Zrotation Xrotation Yrotation
					End Site
					{
						OFFSET	 0.000000	 0.000000	 0.207540
					}
				}
			}
		}
	}
	JOINT Spine
	{
		OFFSET	 0.000184	-0.007763	 0.117403
		CHANNELS 3 Zrotation Xrotation Yrotation
		JOINT Spine1
		{
			OFFSET	 0.000000	 0.000000	 0.137269
			CHANNELS 3 Zrotation Xrotation Yrotation
			JOINT Spine2
			{
				OFFSET	 0.000000	 0.000000	 0.156879
				CHANNELS 3 Zrotation Xrotation Yrotation
				JOINT LeftShoulder
				{
					OFFSET	 0.080501	-0.002496	 0.160144
					CHANNELS 3 Zrotation Xrotation Yrotation
					JOINT LeftArm
					{
						OFFSET	 0.000000	 0.000000	 0.164363
						CHANNELS 3 Zrotation Xrotation Yrotation
						JOINT LeftForeArm
						{
							OFFSET	 0.000000	 0.000000	 0.364576
							CHANNELS 3 Zrotation Xrotation Yrotation
							JOINT LeftHand
							{
								OFFSET	 0.000000	 0.000000	 0.360812
								CHANNELS 3 Zrotation Xrotation Yrotation
								JOINT LeftHandIndex1
								{
									OFFSET	 0.000000	 0.000000	 0.086006
									CHANNELS 3 Zrotation Xrotation Yrotation
									JOINT LeftHandIndex2
									{
										OFFSET	 0.000000	 0.000000	 0.047237
										CHANNELS 3 Zrotation Xrotation Yrotation
										JOINT LeftHandIndex3
										{
											OFFSET	-0.004284	-0.000551	 0.038165
											CHANNELS 3 Zrotation Xrotation Yrotation
											End Site
											{
												OFFSET	-0.004284	-0.000551	 0.038165
											}
										}
									}
								}
							}
						}
					}
				}
				JOINT Neck
				{
					OFFSET	 0.000000	 0.000000	 0.176489
					CHANNELS 3 Zrotation Xrotation Yrotation
					JOINT Head
					{
						OFFSET	 0.000000	-0.001747	 0.077940
						CHANNELS 3 Zrotation Xrotation Yrotation
						End Site
						{
							OFFSET	 0.000000	-0.001747	 0.077940
						}
					}
				}
				JOINT RightShoulder
				{
					OFFSET	-0.080363	 0.000306	 0.159706
					CHANNELS 3 Zrotation Xrotation Yrotation
					JOINT RightArm
					{
						OFFSET	 0.000000	 0.000000	 0.164196
						CHANNELS 3 Zrotation Xrotation Yrotation
						JOINT RightForeArm
						{
							OFFSET	 0.000000	 0.000000	 0.365611
							CHANNELS 3 Zrotation Xrotation Yrotation
							JOINT RightHand
							{
								OFFSET	 0.000000	 0.000000	 0.360648
								CHANNELS 3 Zrotation Xrotation Yrotation
								JOINT RightHandIndex1
								{
									OFFSET	 0.000000	 0.000000	 0.069977
									CHANNELS 3 Zrotation Xrotation Yrotation
									JOINT RightHandIndex2
									{
										OFFSET	 0.000000	 0.000000	 0.052305
										CHANNELS 3 Zrotation Xrotation Yrotation
										JOINT RightHandIndex3
										{
											OFFSET	 0.009002	-0.000782	 0.042196
											CHANNELS 3 Zrotation Xrotation Yrotation
											End Site
											{
												OFFSET	 0.009002	-0.000782	 0.042196
											}
										}
									}
								}
							}
						}
					}
				}
			}
		}
	}
}
MOTION
Frames:    6
Frame Time: 0.03333334
-0.716644	-0.024165	 1.254177	 169.207100	-5.057116	 1.859023	 11.055500	-3.407374	 174.799800	-2.181841	-33.596420	-2.019067	-64.385290	 77.052020	 55.684650	-2.385833	 28.452760	 0.000004	-34.685780	-8.632293	-169.278000	 10.332010	-34.148020	 5.969635	 26.460100	 78.805650	-28.625710	 2.384659	 28.388700	-0.000001	 46.797990	-2.371338	-15.181660	 3.920089	 11.592520	-3.915558	 12.256590	 0.244050	 8.914193	-91.776170	 78.527400	 180.000000	 5.202493	 49.922530	-40.365200	-31.274730	 30.111450	-66.895860	-38.104970	-36.047290	-22.063240	-4.130354	 21.526190	 0.991307	-5.167926	 0.731697	 3.519349	-1.378229	 35.397820	-2.634230	 14.525890	 5.995271	-2.468200	 9.347620	-13.407310	-1.969480	 89.782060	 78.203900	-180.000000	-63.677700	 1.090900	 72.648370	 1.418857	 7.824167	 143.935700	 5.476819	 14.075890	 19.347410	 5.716295	 19.173350	-3.684826	 5.027458	 0.246833	-9.377971	-2.350882	 35.473990	 5.254307
-0.716863	-0.024640	 1.253633	 168.817700	-5.314156	 2.088107	 10.772390	-3.107341	 174.609300	-2.025801	-33.677810	-1.936628	-64.659440	 76.913400	 55.817510	-2.385833	 28.452760	 0.000004	-35.099800	-8.395096	-169.269700	 10.491560	-34.055320	 6.046954	 25.320250	 78.831030	-27.657300	 2.384659	 28.388700	-0.000001	 47.812320	-2.172374	-15.936970	 4.395707	 11.946050	-4.657861	 12.281400	-0.709567	 10.442030	-91.776180	 78.527360	-180.000000	 0.644798	 49.301690	-32.343180	-25.549530	 31.928710	-78.033650	-38.750300	-36.065900	-22.457650	-4.130354	 21.526190	 0.991307	-5.167926	 0.731697	 3.519349	-1.378229	 35.397820	-2.634230	 14.726520	 5.470258	-3.241848	 9.183623	-13.787240	-3.307230	 89.782100	 78.203870	-180.000000	-64.487730	 0.186053	 72.785030	 2.200122	 7.359649	 143.339000	 2.657915	 13.705310	 20.215200	 5.716295	 19.173350	-3.684826	 5.027458	 0.246833	-9.377971	-2.350882	 35.473990	 5.254307
-0.716793	-0.025183	 1.253129	 168.486300	-5.486234	 2.270447	 10.499430	-2.933438	 174.590300	-1.880582	-33.717580	-1.857819	-64.644870	 76.914050	 55.646740	-2.385833	 28.452760	 0.000004	-35.461410	-8.354573	-169.218800	 10.644960	-33.997660	 6.125918	 24.269690	 78.753090	-26.758890	 2.384659	 28.388700	-0.000001	 48.723040	-2.172350	-16.477430	 4.808445	 12.435570	-4.990872	 12.348850	-1.682901	 11.399710	-91.776210	 78.527380	-180.000000	-3.324902	 46.563190	-34.615350	-27.217770	 31.598530	-74.868600	-39.392860	-36.119830	-22.874340	-4.130354	 21.526190	 0.991307	-5.167926	 0.731697	 3.519349	-1.378229	 35.397820	-2.634230	 14.887130	 5.150294	-3.849315	 9.044207	-14.277770	-4.196172	 89.782110	 78.203890	 180.000000	-64.963820	-0.696997	 72.889580	 2.951752	 6.883099	 142.810100	 0.087500	 13.237910	 20.952200	 5.716295	 19.173350	-3.684826	 5.027458	 0.246833	-9.377971	-2.350882	 35.473990	 5.254307
-0.716209	-0.025757	 1.252560	 168.235900	-5.512907	 2.360399	 10.172560	-2.944640	 174.794000	-1.748725	-33.733460	-1.785193	-64.643650	 77.111350	 55.479440	-2.385833	 28.452760	 0.000004	-35.783130	-8.602917	-169.135000	 10.801490	-34.030310	 6.220895	 23.490310	 78.603020	-26.092850	 2.384659	 28.388700	-0.000001	 49.505680	-2.529154	-16.620310	 5.213683	 13.186960	-4.913424	 12.438410	-2.717740	 11.534870	-91.776210	 78.527380	-180.000000	-6.846187	 42.312620	-47.284820	-36.871850	 27.333300	-55.304720	-40.079040	-36.246080	-23.367860	-4.130354	 21.526190	 0.991307	-5.167926	 0.731697	 3.519349	-1.378229	 35.397820	-2.634230	 14.993290	 5.212019	-4.183197	 8.963316	-15.031950	-4.275759	 89.782100	 78.203900	 180.000000	-64.977110	-1.647386	 72.855320	 3.692420	 6.360467	 142.445600	-2.379741	 12.628130	 21.474120	 5.716295	 19.173350	-3.684826	 5.027458	 0.246833	-9.377971	-2.350882	 35.473990	 5.254307
-0.715625	-0.026343	 1.252060	 167.993800	-5.505971	 2.375844	 9.874369	-2.976003	 175.099400	-1.624028	-33.692150	-1.713958	-64.234470	 77.342580	 54.898880	-2.385833	 28.452760	 0.000004	-36.053110	-8.959749	-169.003300	 10.954730	-34.099900	 6.320123	 22.814340	 78.450870	-25.517780	 2.384659	 28.388700	-0.000001	 50.293060	-2.947693	-16.670960	 5.612176	 13.993140	-4.663686	 12.522390	-3.772557	 11.515480	-91.776210	 78.527360	-180.000000	-14.636610	 37.334470	-68.929170	-49.860270	 8.423731	-14.792080	-40.751000	-36.349540	-23.830250	-4.130354	 21.526190	 0.991307	-5.167926	 0.731697	 3.519349	-1.378229	 35.397820	-2.634230	 15.078640	 5.356562	-4.478582	 8.901178	-15.845960	-4.280813	 89.782070	 78.203900	-180.000000	-64.723420	-2.639354	 72.939080	 4.480567	 5.782455	 142.102200	-4.821534	 11.948010	 21.762590	 5.716295	 19.173350	-3.684826	 5.027458	 0.246833	-9.377971	-2.350882	 35.473990	 5.254307
-0.715134	-0.026789	 1.251663	 167.771300	-5.476310	 2.276757	 9.583531	-2.938539	 175.436700	-1.514498	-33.562920	-1.647490	-63.673200	 77.536850	 54.189780	-2.385833	 28.452760	 0.000004	-36.269060	-9.340911	-168.837200	 11.099000	-34.228020	 6.424122	 22.424680	 78.424710	-25.197850	 2.384659	 28.388700	-0.000001	 51.091160	-3.393795	-16.632350	 6.055775	 14.704580	-4.438232	 12.578620	-4.709312	 11.421780	-91.776120	 78.527360	 179.999900	-18.697550	 35.949780	-77.779740	-50.688450	 0.570898	-2.210397	-41.376260	-36.421070	-24.229010	-4.130354	 21.526190	 0.991307	-5.167926	 0.731697	 3.519349	-1.378229	 35.397820	-2.634230	 15.130420	 5.621980	-4.706955	 8.871591	-16.725050	-4.171227	 89.782070	 78.203920	-180.000000	-64.109570	-3.767953	 73.232650	 5.317832	 5.153826	 141.747100	-7.188753	 11.152460	 21.588530	 5.716295	 19.173350	-3.684826	 5.027458	 0.246833	-9.377971	-2.350882	 35.473990	 5.254307
